# xmcd
#
# Track frame offsets: 
#        150
#        16497
#        28269
#        41621
#        60373
#        82758
#        95964
#        111783
#        128294
#        150715
#        169855
#        186009
#        199291
#
# Disc length: 2809 seconds
#
# Revision: 0
# Processed by: cddbd v1.5.2PL0 Copyright (c) Steve Scherf et al.
# Submitted via: ExactAudioCopy v0.95b4
#
DISCID=a20af70d
DTITLE=Rain Dogs - Hair Of The Dog
DYEAR=2004
DGENRE=Blues
TTITLE0=(Babe) I Want You To Know
TTITLE1=Meat Shakin' Woman
TTITLE2=Me and My Chauffeur Blues
TTITLE3=32 20 Blues
TTITLE4=Miss Celie's Blues (Sister)
TTITLE5=Everything All The Time
TTITLE6=Selling My Porkchops
TTITLE7=My Walkin' Stick
TTITLE8=That Man Of Mine
TTITLE9=I'd Rather Drink Muddy Water
TTITLE10=Ain't Misbehavin'
TTITLE11=I Asked For Water (But She Gave Me Gasoline)
TTITLE12=Michael's Boogie
EXTD=
EXTT0=
EXTT1=
EXTT2=
EXTT3=
EXTT4=
EXTT5=
EXTT6=
EXTT7=
EXTT8=
EXTT9=
EXTT10=
EXTT11=
EXTT12=
PLAYORDER=
